<svg width="98" height="98" viewBox="0 0 98 98" fill="none" xmlns="http://www.w3.org/2000/svg" id="elrond">
<g id="Group">
<g id="lines">
<g id="topright">
<path id="Vector" fill-rule="evenodd" clip-rule="evenodd" d="M73.3 24.7C73 24.3 72.8 23.9 72.8 23.4C72.8 22.9 73 22.5 73.3 22.1C74 21.4 75.2 21.4 75.9 22.1C76.2 22.5 76.4 22.9 76.4 23.4C76.4 23.9 76.2 24.3 75.9 24.7C75.5 25 75.1 25.2 74.6 25.2C74.1 25.2 73.7 25 73.3 24.7Z" fill="white"/>
<path id="Vector_2" fill-rule="evenodd" clip-rule="evenodd" d="M77.5 20.125C77.2 19.725 77 19.325 77 18.825C77 18.325 77.2 17.925 77.5 17.525C78.2 16.825 79.4 16.825 80.1 17.525C80.4 17.925 80.6 18.325 80.6 18.825C80.6 19.325 80.4 19.725 80.1 20.125C79.7 20.425 79.3 20.625 78.8 20.625C78.3 20.625 77.9 20.425 77.5 20.125Z" fill="white"/>
<path id="Vector_3" fill-rule="evenodd" clip-rule="evenodd" d="M68 29.8C67.7 29.5 67.5 29 67.5 28.5C67.5 28 67.7 27.6 68 27.2C68.7 26.5 69.9 26.5 70.6 27.2C70.9 27.5 71.1 28 71.1 28.5C71.1 29 70.9 29.4 70.6 29.8C70.2 30.2 69.8 30.3 69.3 30.3C68.8 30.3 68.3 30.1 68 29.8Z" fill="white"/>
<path id="Vector_4" fill-rule="evenodd" clip-rule="evenodd" d="M62.9001 34.9C62.5001 34.6 62.3 34.1 62.3 33.6C62.3 33.1 62.5001 32.7 62.9001 32.3C63.7001 31.6 64.9 31.6 65.7 32.3C66.1 32.6 66.3001 33.1 66.3001 33.6C66.3001 34.1 66.1 34.6 65.7 34.9C65.3 35.3 64.8001 35.4 64.3001 35.4C63.8001 35.4 63.3001 35.3 62.9001 34.9Z" fill="white"/>
<path id="Vector_5" fill-rule="evenodd" clip-rule="evenodd" d="M58 40C57.6 39.7 57.5 39.2 57.5 38.7C57.5 38.2 57.7 37.8 58 37.4C58.7 36.7 59.9 36.7 60.6 37.4C61 37.7 61.1 38.2 61.1 38.7C61.1 39.2 60.9 39.7 60.6 40C60.3 40.4 59.8 40.5 59.3 40.5C58.8 40.6 58.3 40.4 58 40Z" fill="white"/>
<path id="Vector_6" fill-rule="evenodd" clip-rule="evenodd" d="M52.0999 43.8C52.0999 43.3 52.2999 42.9 52.5999 42.5C53.2999 41.8 54.4999 41.8 55.1999 42.5C55.5999 42.9 55.6999 43.3 55.6999 43.8C55.6999 44.3 55.4999 44.7 55.1999 45.1C54.8999 45.4 54.3999 45.6 53.8999 45.6C53.3999 45.6 52.9999 45.4 52.5999 45.1C52.2999 44.8 52.0999 44.3 52.0999 43.8Z" fill="white"/>
</g>
<g id="bottomleft">
<path id="Vector_7" fill-rule="evenodd" clip-rule="evenodd" d="M42.5999 55.1C42.2999 54.8 42.0999 54.3 42.0999 53.8C42.0999 53.3 42.2999 52.9 42.5999 52.5C43.2999 51.8 44.4999 51.8 45.1999 52.5C45.5999 52.9 45.6999 53.3 45.6999 53.8C45.6999 54.3 45.4999 54.7 45.1999 55.1C44.8999 55.5 44.3999 55.6 43.8999 55.6C43.3999 55.7 42.9999 55.5 42.5999 55.1Z" fill="white"/>
<path id="Vector_8" fill-rule="evenodd" clip-rule="evenodd" d="M37.2999 60.2C36.8999 59.9 36.7 59.4 36.7 58.9C36.7 58.4 36.8999 58 37.2999 57.6C38.0999 56.9 39.2999 56.9 40.0999 57.6C40.4999 58 40.7 58.4 40.7 58.9C40.7 59.4 40.4999 59.8 40.0999 60.2C39.6999 60.6 39.2 60.7 38.7 60.7C38.2 60.8 37.6999 60.6 37.2999 60.2Z" fill="white"/>
<path id="Vector_9" fill-rule="evenodd" clip-rule="evenodd" d="M32.3999 65.4C32.0999 65.1 31.8999 64.6 31.8999 64.1C31.8999 63.6 32.0999 63.1 32.3999 62.8C33.0999 62.1 34.2999 62.1 34.9999 62.8C35.2999 63.1 35.4999 63.6 35.4999 64.1C35.4999 64.6 35.2999 65 34.9999 65.4C34.5999 65.8 34.1999 65.9 33.6999 65.9C33.1999 65.9 32.7999 65.7 32.3999 65.4Z" fill="white"/>
<path id="Vector_10" fill-rule="evenodd" clip-rule="evenodd" d="M27.3 70.5C26.9 70.2 26.8 69.7 26.8 69.2C26.8 68.7 27 68.3 27.3 67.9C28 67.2 29.2 67.2 29.9 67.9C30.2 68.3 30.4 68.7 30.4 69.2C30.4 69.7 30.2 70.2 29.9 70.5C29.5 70.9 29.1 71 28.6 71C28.1 71 27.6 70.9 27.3 70.5Z" fill="white"/>
<path id="Vector_11" fill-rule="evenodd" clip-rule="evenodd" d="M21.9999 75.6C21.5999 75.3 21.3999 74.8 21.3999 74.3C21.3999 73.8 21.5999 73.4 21.9999 73C22.7999 72.3 23.9999 72.3 24.6999 73C25.0999 73.4 25.2999 73.8 25.2999 74.3C25.2999 74.8 25.0999 75.3 24.6999 75.6C24.2999 75.9 23.7999 76.1 23.2999 76.1C22.7999 76.1 22.2999 76 21.9999 75.6Z" fill="white"/>
<path id="Vector_12" fill-rule="evenodd" clip-rule="evenodd" d="M17 80.7C16.6 80.3 16.5 79.9 16.5 79.4C16.5 78.9 16.7 78.5 17 78.1C17.7 77.4 18.9 77.4 19.6 78.1C20 78.5 20.1 78.9 20.1 79.4C20.1 79.9 19.9 80.3 19.6 80.7C19.3 81 18.8 81.2 18.3 81.2C17.9 81.3 17.4 81.1 17 80.7Z" fill="white"/>
</g>
<g id="topleft">
<path id="Vector_13" fill-rule="evenodd" clip-rule="evenodd" d="M19.6 19.5C19.9 19.1 20.1 18.7 20.1 18.2C20.1 17.7 19.9 17.3 19.6 16.9C18.9 16.2 17.7 16.2 17 16.9C16.6 17.3 16.5 17.7 16.5 18.2C16.5 18.7 16.7 19.1 17 19.5C17.3 19.8 17.8 20 18.3 20C18.8 20.1 19.3 19.9 19.6 19.5Z" fill="white"/>
<path id="Vector_14" fill-rule="evenodd" clip-rule="evenodd" d="M24.7001 24.7C25.1001 24.3 25.3 23.9 25.3 23.4C25.3 22.9 25.1001 22.5 24.7001 22.1C23.9001 21.4 22.7 21.4 21.9 22.1C21.5 22.5 21.3 22.9 21.3 23.4C21.3 23.9 21.5 24.3 21.9 24.7C22.3 25 22.8 25.2 23.3 25.2C23.8 25.2 24.3001 25 24.7001 24.7Z" fill="white"/>
<path id="Vector_15" fill-rule="evenodd" clip-rule="evenodd" d="M29.9 29.8C30.2 29.5 30.4 29 30.4 28.5C30.4 28 30.2 27.6 29.9 27.2C29.2 26.5 28 26.5 27.3 27.2C27 27.5 26.8 28 26.8 28.5C26.8 29 27 29.4 27.3 29.8C27.7 30.2 28.1 30.3 28.6 30.3C29 30.3 29.5 30.1 29.9 29.8Z" fill="white"/>
<path id="Vector_16" fill-rule="evenodd" clip-rule="evenodd" d="M34.9999 34.9C35.2999 34.6 35.4999 34.1 35.4999 33.6C35.4999 33.1 35.2999 32.7 34.9999 32.3C34.2999 31.6 33.0999 31.6 32.3999 32.3C32.0999 32.6 31.8999 33.1 31.8999 33.6C31.8999 34.1 32.0999 34.6 32.3999 34.9C32.7999 35.3 33.1999 35.4 33.6999 35.4C34.0999 35.4 34.5999 35.3 34.9999 34.9Z" fill="white"/>
<path id="Vector_17" fill-rule="evenodd" clip-rule="evenodd" d="M40 40C40.4 39.7 40.5999 39.2 40.5999 38.7C40.5999 38.2 40.4 37.8 40 37.4C39.3 36.7 37.9999 36.7 37.2999 37.4C36.8999 37.7 36.7 38.2 36.7 38.7C36.7 39.2 36.8999 39.7 37.2999 40C37.6999 40.4 38.2 40.5 38.7 40.5C39.2 40.6 39.7 40.4 40 40Z" fill="white"/>
<path id="Vector_18" fill-rule="evenodd" clip-rule="evenodd" d="M45.6999 43.8C45.6999 43.3 45.4999 42.9 45.1999 42.5C44.4999 41.8 43.2999 41.8 42.5999 42.5C42.1999 42.9 42.0999 43.3 42.0999 43.8C42.0999 44.3 42.2999 44.7 42.5999 45.1C42.8999 45.4 43.3999 45.6 43.8999 45.6C44.3999 45.6 44.7999 45.4 45.1999 45.1C45.5999 44.8 45.6999 44.3 45.6999 43.8Z" fill="white"/>
</g>
<path id="center" fill-rule="evenodd" clip-rule="evenodd" d="M50.2999 50.3C50.6999 49.9 50.7999 49.5 50.7999 49C50.7999 48.5 50.5999 48.1 50.2999 47.7C49.5999 47 48.4 47 47.7 47.7C47.3 48.1 47.2 48.5 47.2 49C47.2 49.5 47.4 49.9 47.7 50.3C48 50.6 48.5 50.8 49 50.8C49.5 50.8 49.9999 50.6 50.2999 50.3Z" fill="white"/>
<g id="bottomright">
<path id="Vector_19" fill-rule="evenodd" clip-rule="evenodd" d="M55.3999 55.1C55.7999 54.8 55.9999 54.3 55.9999 53.8C55.9999 53.3 55.7999 52.9 55.3999 52.5C54.5999 51.8 53.3999 51.8 52.6999 52.5C52.2999 52.9 52.0999 53.3 52.0999 53.8C52.0999 54.3 52.2999 54.7 52.6999 55.1C53.0999 55.5 53.5999 55.6 54.0999 55.6C54.4999 55.7 54.9999 55.5 55.3999 55.1Z" fill="white"/>
<path id="Vector_20" fill-rule="evenodd" clip-rule="evenodd" d="M60.6 60.2C60.9 59.9 61.1 59.4 61.1 58.9C61.1 58.4 60.9 58 60.6 57.6C59.9 56.9 58.7 56.9 58 57.6C57.7 58 57.5 58.4 57.5 58.9C57.5 59.4 57.7 59.8 58 60.2C58.4 60.6 58.8 60.7 59.3 60.7C59.7 60.8 60.2 60.6 60.6 60.2Z" fill="white"/>
<path id="Vector_21" fill-rule="evenodd" clip-rule="evenodd" d="M65.6999 65.4C65.9999 65.1 66.1999 64.6 66.1999 64.1C66.1999 63.6 65.9999 63.1 65.6999 62.8C64.9999 62.1 63.7999 62.1 63.0999 62.8C62.7999 63.1 62.5999 63.6 62.5999 64.1C62.5999 64.6 62.7999 65 63.0999 65.4C63.4999 65.8 63.8999 65.9 64.3999 65.9C64.8999 65.9 65.2999 65.7 65.6999 65.4Z" fill="white"/>
<path id="Vector_22" fill-rule="evenodd" clip-rule="evenodd" d="M70.4999 70.5C70.8999 70.2 70.9999 69.7 70.9999 69.2C70.9999 68.7 70.7999 68.3 70.4999 67.9C69.7999 67.2 68.5999 67.2 67.8999 67.9C67.5999 68.3 67.3999 68.7 67.3999 69.2C67.3999 69.7 67.5999 70.2 67.8999 70.5C68.2999 70.9 68.6999 71 69.1999 71C69.6999 71 70.1999 70.9 70.4999 70.5Z" fill="white"/>
<path id="Vector_23" fill-rule="evenodd" clip-rule="evenodd" d="M75.9 75.6C76.3 75.3 76.4 74.8 76.4 74.3C76.4 73.8 76.2 73.4 75.9 73C75.2 72.3 74 72.3 73.3 73C72.9 73.4 72.8 73.8 72.8 74.3C72.8 74.8 73 75.3 73.3 75.6C73.6 75.9 74.1 76.1 74.6 76.1C75.1 76.1 75.6 76 75.9 75.6Z" fill="white"/>
<path id="Vector_24" fill-rule="evenodd" clip-rule="evenodd" d="M81 80.7C81.4 80.3 81.6 79.9 81.6 79.4C81.6 78.9 81.4 78.5 81 78.1C80.2 77.4 79 77.4 78.3 78.1C77.9 78.5 77.7 78.9 77.7 79.4C77.7 79.9 77.9 80.3 78.3 80.7C78.7 81 79.2 81.2 79.7 81.2C80.1 81.3 80.6 81.1 81 80.7Z" fill="white"/>
</g>
</g>
<g id="big">
<path id="Fill-9_1_" fill-rule="evenodd" clip-rule="evenodd" d="M31.7001 20.9C36.9001 17.5 42.6001 15.9 48.9001 15.8C55.1001 15.8 60.8 17.5 66.1 20.9L77.1 9.90001C68.5 3.40001 59.2001 0.100006 48.9001 0.100006C38.6001 0.100006 29.2 3.40001 20.8 9.90001L31.7001 20.9Z" fill="white"/>
<path id="Fill-10_1_" fill-rule="evenodd" clip-rule="evenodd" d="M20.7 66C17.2 60.7 15.5 55 15.5 48.9C15.5 42.7 17.2 37 20.7 31.8L9.79995 20.9C3.39995 29.3 0.199951 38.6 0.199951 49C0.199951 59.2 3.39995 68.6 9.89995 77.1L20.7 66Z" fill="white"/>
<path id="Fill-11_1_" fill-rule="evenodd" clip-rule="evenodd" d="M66.0999 76.9C60.8999 80.4 55.2 82.2 49 82.3C42.7 82.3 36.9 80.6 31.7 77L20.7 87.9C29.2 94.5 38.6 97.8 49 97.7C59.3 97.6 68.6 94.3 77 87.9L66.0999 76.9Z" fill="white"/>
<path id="Fill-12_1_" fill-rule="evenodd" clip-rule="evenodd" d="M76.8 31.7C80.3 37 82.1 42.8 82 49.1C81.9 55.2 80.2 60.8 76.8 65.9L87.8 76.8C94.3 68.4 97.6 59.1 97.6 48.9C97.7 38.5 94.4 29.1 87.8 20.6L76.8 31.7Z" fill="white"/>
</g>
<g id="external">
<path id="Fill-15_1_" fill-rule="evenodd" clip-rule="evenodd" d="M88.2999 80.3C92.4999 80.3 95.9999 83.7 95.9999 88C95.9999 92.2 92.5999 95.7 88.2999 95.7C84.0999 95.7 80.5999 92.3 80.5999 88C80.5999 83.7 83.9999 80.3 88.2999 80.3Z" fill="white"/>
<path id="Fill-16_1_" fill-rule="evenodd" clip-rule="evenodd" d="M9.69985 80.3C13.8999 80.3 17.2999 83.7 17.2999 88C17.2999 92.2 13.8999 95.7 9.69985 95.7C5.49985 95.7 2.09985 92.3 2.09985 88C2.09985 83.7 5.49985 80.3 9.69985 80.3Z" fill="white"/>
<path id="Fill-17_1_" fill-rule="evenodd" clip-rule="evenodd" d="M88.4 1.80002C92.6 1.80002 96 5.20002 96 9.50002C96 13.8 92.6 17.2 88.4 17.2C84.2 17.2 80.8 13.8 80.8 9.50002C80.8 5.20002 84.2 1.80002 88.4 1.80002Z" fill="white"/>
<path id="Fill-18_1_" fill-rule="evenodd" clip-rule="evenodd" d="M9.5999 1.80002C13.7999 1.80002 17.2999 5.20002 17.2999 9.40002C17.2999 13.6 13.8999 17 9.5999 17C5.3999 17 1.8999 13.6 1.8999 9.40002C1.8999 5.20002 5.2999 1.80002 9.5999 1.80002Z" fill="white"/>
</g>
<g id="centers">
<path id="Fill-15_1__2" fill-rule="evenodd" clip-rule="evenodd" d="M48.7 41C52.9 41 56.4 44.4 56.4 48.7C56.4 52.9 53 56.4 48.7 56.4C44.5 56.4 41 53 41 48.7C41 44.4 44.4 41 48.7 41Z" fill="white"/>
<path id="Fill-15_1__3" fill-rule="evenodd" clip-rule="evenodd" d="M48.7 41C52.9 41 56.4 44.4 56.4 48.7C56.4 52.9 53 56.4 48.7 56.4C44.5 56.4 41 53 41 48.7C41 44.4 44.4 41 48.7 41Z" fill="white"/>
<path id="Fill-15_1__4" fill-rule="evenodd" clip-rule="evenodd" d="M48.7 41C52.9 41 56.4 44.4 56.4 48.7C56.4 52.9 53 56.4 48.7 56.4C44.5 56.4 41 53 41 48.7C41 44.4 44.4 41 48.7 41Z" fill="white"/>
<path id="Fill-15_1__5" fill-rule="evenodd" clip-rule="evenodd" d="M48.7 41C52.9 41 56.4 44.4 56.4 48.7C56.4 52.9 53 56.4 48.7 56.4C44.5 56.4 41 53 41 48.7C41 44.4 44.4 41 48.7 41Z" fill="white"/>
</g>
</g>
</svg>
