<svg width="206" height="50" viewBox="0 0 206 50" fill="none" xmlns="http://www.w3.org/2000/svg">
<path id="text" d="M33.5 43.4L29.7 40C27.4 42.7 22.8 44.3 18.9 44.3C12.4 44.3 7.20004 40.4 6.60004 34.1H35.4C36.7 20.6 28.8 14.2 18.4 14.2C8.20004 14.2 0.800049 21.5 0.800049 31.8C0.800049 42.6 8.10004 49.5 18.7 49.5C24.1 49.4 30 47.4 33.5 43.4ZM30.2 29.3H6.70004C7.70004 22.8 12.8 19.2 18.7 19.2C25.3 19.2 29.8 22.7 30.2 29.1V29.3ZM49.4 0.700012H43.8V48.8H49.4V0.700012ZM65.3 14.9H60.1001V48.8H65.7V29.9C65.7 23.7 70.2 19.8 75.7 19.7C78 19.7 79.8001 20.3 81.6001 21.6L84.1001 16.8C82.0001 15.2 79.2 14.2 76.2 14.3C72.3 14.3 68.1 15.5 65.8 19.9L65.3 14.9ZM87.3 31.9C87.3 42.2 94.7 49.4 104.9 49.4C115.1 49.4 122.5 42.2 122.5 31.9C122.5 21.4 115.2 14.1 104.9 14.1C94.8 14.1 87.3 21.4 87.3 31.9ZM116.9 31.9C116.8 39 111.8 44.1 104.8 44.1C97.9 44.1 92.9 39 92.9 31.9C92.9 24.3 98 19.3 104.9 19.3C111.7 19.3 116.9 24.4 116.9 31.9ZM130.6 14.8V48.8H136.2V30.6C136.2 24.5 140.5 19.6 146.6 19.5C153.1 19.5 156.9 23.6 156.9 30.1V48.8H162.5V30.1C162.5 20.1 156.2 14.4 147.6 14.4C143.1 14.4 138.9 16.3 136 20.3L135.7 14.9L130.6 14.8ZM205.6 0.700012H200V21C197.6 16.4 192.1 14.2 187.3 14.2C177.7 14.2 170.2 20.4 170.2 31.8C170.2 43 177.7 49.4 187.4 49.4C192.4 49.4 197.4 47.2 200.1 42.5L200.4 48.7H205.7L205.6 0.700012ZM187.8 19.5C194.5 19.5 199.8 24.5 199.8 31.7C199.8 39.1 194.5 44.1 187.8 44.1C181.2 44.1 175.9 39.6 175.9 31.8C175.9 23.9 181.1 19.6 187.6 19.5H187.8V19.5Z" fill="white"/>
</svg>
